<?xml version="1.0" encoding="UTF-8"?>
<svg version="1.1" xmlns="http://www.w3.org/2000/svg" width="128" height="128">
<path d="M0 0 C0.76480682 -0.0065712 1.52961365 -0.0131424 2.31759644 -0.01991272 C4.84503284 -0.03959749 7.37240986 -0.05129961 9.89990234 -0.0612793 C10.76635754 -0.06535482 11.63281273 -0.06943035 12.52552414 -0.07362938 C17.1146699 -0.09447293 21.70378593 -0.10878018 26.29296875 -0.11816406 C31.0137465 -0.1292048 35.73404984 -0.16358247 40.45466042 -0.20333576 C44.10086899 -0.22958885 47.7469662 -0.23786374 51.39326096 -0.24144554 C53.1322486 -0.24629168 54.87123194 -0.25784888 56.6101265 -0.27648354 C69.05317943 -0.4015046 79.1512149 0.36168622 88.60302734 9.23950195 C96.50352084 17.94760146 97.00244868 26.67931676 96.54003906 37.97729492 C95.85309187 46.40971208 91.46731146 53.64171224 86.36083984 60.17700195 C85.64347656 61.10125977 85.64347656 61.10125977 84.91162109 62.04418945 C74.76337692 73.54723701 59.7719715 75.73588879 45.36083984 77.17700195 C45.36083984 84.76700195 45.36083984 92.35700195 45.36083984 100.17700195 C56.75696647 100.17700195 64.39351241 98.62943659 73.23193359 91.38793945 C76.60432865 87.8855989 79.00559311 83.84437132 81.43896484 79.65356445 C83.36083984 77.17700195 83.36083984 77.17700195 85.97802734 76.2668457 C88.36083984 76.17700195 88.36083984 76.17700195 90.23583984 77.11450195 C92.08939549 80.5126873 91.14261176 83.56264548 90.36083984 87.17700195 C89.98572266 88.93077148 89.98572266 88.93077148 89.60302734 90.7199707 C86.3416681 104.82150095 79.47171198 114.17229218 67.36083984 122.17700195 C60.99629364 125.57580085 54.93969947 126.3263633 47.82006836 126.35400391 C47.07795105 126.3605751 46.33583374 126.3671463 45.57122803 126.37391663 C43.12739954 126.39354919 40.68363208 126.405287 38.23974609 126.4152832 C37.40231306 126.41935873 36.56488003 126.42343426 35.70207024 126.42763329 C31.27314377 126.44844684 26.8442479 126.46277132 22.4152832 126.47216797 C17.84771235 126.48324888 13.28062642 126.51768134 8.71322727 126.55733967 C5.19328414 126.5835008 1.67345701 126.59185912 -1.84657478 126.59544945 C-3.53025669 126.60031328 -5.21393349 126.61192154 -6.89752007 126.63048744 C-9.25506941 126.65487899 -11.61135682 126.65391496 -13.96899414 126.64697266 C-14.65957413 126.65978271 -15.35015411 126.67259277 -16.06166077 126.68579102 C-21.02392587 126.63269128 -23.80331278 125.25282917 -27.63916016 122.17700195 C-30.01218182 119.25027523 -30.59882642 117.49390991 -31.07666016 113.73950195 C-30.45735839 108.69661613 -28.54655102 105.70023872 -24.58569336 102.53710938 C-20.43694843 100.62206604 -16.70236692 100.69844435 -12.18212891 100.6652832 C-11.2791658 100.647332 -10.3762027 100.6293808 -9.44587708 100.61088562 C-6.57285171 100.55687174 -3.69999165 100.52291558 -0.82666016 100.48950195 C1.12583676 100.456321 3.07831188 100.42183062 5.03076172 100.38598633 C9.80747704 100.29869404 14.58344631 100.23854989 19.36083984 100.17700195 C19.36083984 92.58700195 19.36083984 84.99700195 19.36083984 77.17700195 C16.80333984 76.95012695 14.24583984 76.72325195 11.61083984 76.48950195 C-3.11652264 74.90013707 -14.16853099 68.88378583 -23.81103516 57.68481445 C-31.58543252 47.01993602 -32.96737598 35.00085271 -31.63916016 22.17700195 C-29.51478871 14.4702015 -24.34778252 8.06918947 -17.55322266 3.89575195 C-11.63655684 0.81644632 -6.6664405 0.02496689 0 0 Z " fill="#EFDFAC" transform="translate(31.63916015625,0.822998046875)"/>
<path d="M0 0 C25.08 0 50.16 0 76 0 C76 0.66 76 1.32 76 2 C67.585 2.495 67.585 2.495 59 3 C61.97 5.475 61.97 5.475 65 8 C67 11 67 11 67 15 C69.31 15 71.62 15 74 15 C74 15.33 74 15.66 74 16 C72.02 16 70.04 16 68 16 C68 18.64 68 21.28 68 24 C69.0725 24.061875 70.145 24.12375 71.25 24.1875 C75 25 75 25 77.5 27.125 C79.47798094 30.91613014 79.13111674 32.92797973 78 37 C76.9375 38.9375 76.9375 38.9375 75 40 C70.13418066 40.5493667 68.1023556 40.73490373 64 38 C63.34 37.34 62.68 36.68 62 36 C61.13375 36.78375 60.2675 37.5675 59.375 38.375 C53.1992182 43.96261211 45.46395733 43.36586369 37.625 43.375 C36.52671875 43.39949219 35.4284375 43.42398438 34.296875 43.44921875 C25.56660678 43.48062259 19.81652262 41.68043552 13 36 C12.505 36.66 12.01 37.32 11.5 38 C8.4554772 40.43561824 6.72182498 40.65905093 2.91015625 40.4453125 C1 40 1 40 -1.5625 37.9375 C-3.46450952 34.0507849 -3.2706357 32.11088021 -2 28 C0.58860593 25.19567691 1.99103488 24.08968579 5.8125 23.75 C6.534375 23.8325 7.25625 23.915 8 24 C8 21.36 8 18.72 8 16 C6.02 16 4.04 16 2 16 C2 15.67 2 15.34 2 15 C4.31 15 6.62 15 9 15 C9.061875 14.29875 9.12375 13.5975 9.1875 12.875 C10.30471238 8.92178696 12.20187383 7.00286711 15 4 C15.66 3.67 16.32 3.34 17 3 C11.39 2.67 5.78 2.34 0 2 C0 1.34 0 0.68 0 0 Z " fill="#F2B659" transform="translate(26,1)"/>
<path d="M0 0 C9.94895903 1.95425981 17.21329859 6.53237111 23 15 C25.80514747 20.38745613 26.51849506 24.71329655 26.4375 30.75 C26.42992676 31.54204834 26.42235352 32.33409668 26.41455078 33.15014648 C26.12184884 43.62011619 22.40844303 51.79844031 16 60 C15.28263672 60.92425781 15.28263672 60.92425781 14.55078125 61.8671875 C7.26741411 70.12289333 -4.28305001 74.74736948 -15 76 C-18.63 76 -22.26 76 -26 76 C-26 64.78 -26 53.56 -26 42 C-23.03 40.68 -20.06 39.36 -17 38 C-14.56557532 36.4103041 -14.56557532 36.4103041 -13 35 C-12.505 35.66 -12.01 36.32 -11.5 37 C-8.86939611 39.10448312 -8.15374106 39.3578457 -4.9375 39.5 C-1.09947274 39.34513755 -1.09947274 39.34513755 1.0625 37.4375 C2.41963883 33.90893904 1.98515877 31.61224884 1 28 C-1.64711168 25.16380891 -4.21730663 24.52537408 -8 24 C-7.9175 22.845 -7.835 21.69 -7.75 20.5 C-7.76730661 15.61088348 -9.19335766 11.98032914 -12 8 C-13.9019269 6.12590617 -15.85571154 4.60821634 -18 3 C-18 2.67 -18 2.34 -18 2 C-12.06 2 -6.12 2 0 2 C0 1.34 0 0.68 0 0 Z " fill="#E8AE54" transform="translate(102,1)"/>
<path d="M0 0 C0 0.66 0 1.32 0 2 C5.94 2 11.88 2 18 2 C16.35 3.65 14.7 5.3 13 7 C8.37456738 12.48199422 7.76370353 17.02925417 8 24 C6.906875 24.2475 5.81375 24.495 4.6875 24.75 C1.08292738 25.72153734 1.08292738 25.72153734 -1 27.6875 C-2.46342327 31.0716663 -1.84800236 33.47752864 -1 37 C0.98233513 39.40533071 0.98233513 39.40533071 4.8125 39.375 C8.97028498 39.29926621 11.03394865 37.96605135 14 35 C14.53109375 35.40992188 15.0621875 35.81984375 15.609375 36.2421875 C16.31578125 36.78101563 17.0221875 37.31984375 17.75 37.875 C18.44609375 38.40867188 19.1421875 38.94234375 19.859375 39.4921875 C22.21904196 41.23406233 22.21904196 41.23406233 26 43 C26 53.89 26 64.78 26 76 C10.6372848 76 -2.33442168 73.55055457 -13.9375 62.9375 C-23.543016 52.52404341 -26.59694691 40.3166 -26.33984375 26.50390625 C-25.92260666 18.14012043 -21.94268327 12.06429631 -15.8984375 6.46875 C-11.37366915 2.96810618 -5.84227238 0 0 0 Z " fill="#E8AE54" transform="translate(26,1)"/>
<path d="M0 0 C2 0.6875 2 0.6875 4 2.6875 C3.48907197 15.71616468 -0.77347471 27.64169507 -9.375 37.375 C-18.33030222 45.26419481 -26.17020571 49.84309144 -38.39453125 49.78515625 C-39.59658203 49.78193359 -40.79863281 49.77871094 -42.03710938 49.77539062 C-43.28298828 49.76701172 -44.52886719 49.75863281 -45.8125 49.75 C-47.07771484 49.74548828 -48.34292969 49.74097656 -49.64648438 49.73632812 C-52.7643711 49.72456251 -55.88216133 49.70812272 -59 49.6875 C-58.01 49.0275 -57.02 48.3675 -56 47.6875 C-54.989375 46.98625 -53.97875 46.285 -52.9375 45.5625 C-50 43.6875 -50 43.6875 -48 43.6875 C-47.566875 42.57375 -47.566875 42.57375 -47.125 41.4375 C-46 38.6875 -46 38.6875 -44.96875 36.84375 C-43.83312008 34.3160576 -43.59256608 32.19333696 -43.375 29.4375 C-43.30023438 28.54546875 -43.22546875 27.6534375 -43.1484375 26.734375 C-43.09945312 26.05890625 -43.05046875 25.3834375 -43 24.6875 C-42.03320312 24.60113281 -41.06640625 24.51476562 -40.0703125 24.42578125 C-29.55227536 23.29066635 -19.3201494 21.08860411 -12 12.6875 C-9.8228721 9.58611969 -7.75248946 6.44145612 -5.734375 3.234375 C-3.19216774 -0.49877621 -3.19216774 -0.49877621 0 0 Z " fill="#E9AE54" transform="translate(119,77.3125)"/>
<path d="M0 0 C0.92515915 0.00424484 1.8503183 0.00848969 2.80351257 0.01286316 C5.74821505 0.02960882 8.69222435 0.06725353 11.63671875 0.10546875 C13.63735988 0.1205209 15.63801178 0.13420838 17.63867188 0.14648438 C22.53411982 0.17949892 27.4290519 0.231253 32.32421875 0.29296875 C32.19908879 1.71684187 32.0643995 3.13987667 31.92578125 4.5625 C31.81484131 5.75129761 31.81484131 5.75129761 31.70166016 6.96411133 C30.71626622 13.04410662 26.97733905 16.98477363 22.49609375 20.93359375 C15.56839576 25.26963494 9.17888394 25.78969703 1.19921875 25.73046875 C-0.24517578 25.76043945 -0.24517578 25.76043945 -1.71875 25.79101562 C-7.69834805 25.78690311 -11.11921771 25.2507531 -15.67578125 21.29296875 C-18.04880292 18.36624203 -18.63544751 16.60987671 -19.11328125 12.85546875 C-18.49356332 7.80919414 -16.57232866 4.83040927 -12.63598633 1.6394043 C-8.39842337 -0.28803156 -4.60029531 -0.07977481 0 0 Z " fill="#F0B55A" transform="translate(19.67578125,101.70703125)"/>
<path d="M0 0 C6.1614431 -0.43238197 10.11721083 0.06904568 15 4 C19.50226645 8.61770918 19.44148869 12.96329021 19.43359375 19.09765625 C18.50407928 25.3195414 14.77665931 28.41750552 10 32 C5.65491432 33.44836189 1.54108905 33.52342771 -3 33 C-6.47885578 31.16569423 -9.4955759 29.06096279 -12 26 C-12 25.34 -12 24.68 -12 24 C-10.46875 22.7109375 -10.46875 22.7109375 -8.5 21.375 C-7.8503125 20.92898437 -7.200625 20.48296875 -6.53125 20.0234375 C-5.77328125 19.51683594 -5.77328125 19.51683594 -5 19 C-4.505 19.66 -4.01 20.32 -3.5 21 C-0.86939611 23.10448312 -0.15374106 23.3578457 3.0625 23.5 C6.90052726 23.34513755 6.90052726 23.34513755 9.0625 21.4375 C10.41963883 17.90893904 9.98515877 15.61224884 9 12 C6.35288832 9.16380891 3.78269337 8.52537408 0 8 C0 5.36 0 2.72 0 0 Z " fill="#F6E7B2" transform="translate(94,17)"/>
<path d="M0 0 C0 2.64 0 5.28 0 8 C-1.6396875 8.37125 -1.6396875 8.37125 -3.3125 8.75 C-6.91707262 9.72153734 -6.91707262 9.72153734 -9 11.6875 C-10.46342327 15.0716663 -9.84800236 17.47752864 -9 21 C-7.01766487 23.40533071 -7.01766487 23.40533071 -3.1875 23.375 C0.97028498 23.29926621 3.03394865 21.96605135 6 19 C7.98 20.65 9.96 22.3 12 24 C10.50521886 27.80489745 8.30557786 29.66190835 5 32 C0.65241377 33.44919541 -3.45628677 33.51745876 -8 33 C-12.8762528 30.47157262 -17.22786617 27.3164015 -19 22 C-19.48768871 16.45953648 -19.74334535 11.60105152 -17.375 6.5 C-11.81266991 0.6449157 -7.83274866 -0.62661989 0 0 Z " fill="#F6E8B3" transform="translate(34,17)"/>
<path d="M0 0 C7.92 0 15.84 0 24 0 C24 5.94 24 11.88 24 18 C16.08 18 8.16 18 0 18 C0 12.06 0 6.12 0 0 Z " fill="#F8EAB5" transform="translate(52,81)"/>
<path d="M0 0 C7.26 0 14.52 0 22 0 C22 6.27 22 12.54 22 19 C14.41 19 6.82 19 -1 19 C-0.67 12.73 -0.34 6.46 0 0 Z " fill="#F8E9B4" transform="translate(53,58)"/>
<path d="M0 0 C7.92 0 15.84 0 24 0 C24 3.3 24 6.6 24 10 C16.08 10 8.16 10 0 10 C0 6.7 0 3.4 0 0 Z " fill="#E7D8A5" transform="translate(52,44)"/>
<path d="M0 0 C1.32 0.33 2.64 0.66 4 1 C4 1.66 4 2.32 4 3 C4.99 3 5.98 3 7 3 C7 2.01 7 1.02 7 0 C8.32 0 9.64 0 11 0 C11 0.99 11 1.98 11 3 C11.99 3 12.98 3 14 3 C14.33 2.01 14.66 1.02 15 0 C15.99 0 16.98 0 18 0 C18 1.65 18 3.3 18 5 C16.02 5.99 16.02 5.99 14 7 C14 10.96 14 14.92 14 19 C12.906875 18.814375 11.81375 18.62875 10.6875 18.4375 C7.06375867 17.7421932 7.06375867 17.7421932 4 19 C4 15.04 4 11.08 4 7 C2.68 6.34 1.36 5.68 0 5 C0 3.35 0 1.7 0 0 Z " fill="#D56E59" transform="translate(55,20)"/>
<path d="M0 0 C7.24942792 -0.60411899 7.24942792 -0.60411899 10.5625 2.0625 C12.43625505 5.89147772 12.12962701 7.93334276 11 12 C9.9375 13.9375 9.9375 13.9375 8 15 C0.97560976 15.7804878 0.97560976 15.7804878 -2.5 13 C-2.995 12.34 -3.49 11.68 -4 11 C-3.71125 10.29875 -3.4225 9.5975 -3.125 8.875 C-1.97866412 5.94547497 -0.97374346 2.99078347 0 0 Z " fill="#4E535A" transform="translate(93,26)"/>
<path d="M0 0 C4.21103295 7.98704184 4.21103295 7.98704184 3.375 12 C2 14 2 14 0 15 C-7.14136126 15.69109948 -7.14136126 15.69109948 -10.5625 12.9375 C-12.43625505 9.10852228 -12.12962701 7.06665724 -11 3 C-8.64233488 -1.29927169 -4.33726788 -0.21330826 0 0 Z " fill="#4A4F55" transform="translate(35,26)"/>
<path d="M0 0 C0.66 0.99 1.32 1.98 2 3 C0.68 3.33 -0.64 3.66 -2 4 C-2 13.9 -2 23.8 -2 34 C-3.65 34 -5.3 34 -7 34 C-7 22.78 -7 11.56 -7 0 C-3.86559131 -1.0448029 -2.97903963 -1.15317663 0 0 Z " fill="#D09C4B" transform="translate(83,43)"/>
<path d="M0 0 C1.98 0.66 3.96 1.32 6 2 C6 12.89 6 23.78 6 35 C4.35 35 2.7 35 1 35 C1 25.1 1 15.2 1 5 C0.01 4.67 -0.98 4.34 -2 4 C-1.34 2.68 -0.68 1.36 0 0 Z " fill="#D09C4A" transform="translate(46,42)"/>
<path d="M0 0 C1.32 0.33 2.64 0.66 4 1 C4 1.66 4 2.32 4 3 C4.99 3 5.98 3 7 3 C7 2.01 7 1.02 7 0 C8.32 0 9.64 0 11 0 C11 0.99 11 1.98 11 3 C11.99 3 12.98 3 14 3 C14.33 2.01 14.66 1.02 15 0 C15.99 0 16.98 0 18 0 C18.125 2.375 18.125 2.375 18 5 C16 7 16 7 12.8125 7.265625 C10.9253125 7.25789063 10.9253125 7.25789063 9 7.25 C7.741875 7.25515625 6.48375 7.2603125 5.1875 7.265625 C2 7 2 7 0 5 C-0.125 2.375 -0.125 2.375 0 0 Z " fill="#4E5258" transform="translate(55,20)"/>
<path d="M0 0 C7.30645606 1.05084393 14.06392339 2.45677191 21 5 C18.73150928 7.08828351 17.62675851 8.00973227 14.484375 7.9609375 C8.74973493 6.73208606 3.42117541 5.25029923 -2 3 C-1.34 2.01 -0.68 1.02 0 0 Z " fill="#E1D2A2" transform="translate(46,118)"/>
<path d="M0 0 C1.98 0 3.96 0 6 0 C5.53411505 5.70709064 4.06242216 9.15939723 1 14 C-0.32 13.67 -1.64 13.34 -3 13 C-3.93045933 10.44855176 -4.08564091 9.25993522 -3.22265625 6.640625 C-2.83980469 5.85171875 -2.45695312 5.0628125 -2.0625 4.25 C-1.68222656 3.45078125 -1.30195312 2.6515625 -0.91015625 1.828125 C-0.60980469 1.22484375 -0.30945313 0.6215625 0 0 Z " fill="#454A4F" transform="translate(93,26)"/>
<path d="M0 0 C0.5775 0.78375 1.155 1.5675 1.75 2.375 C4.50313162 5.58698689 6.3591396 6.7960636 10.56542969 7.31884766 C11.50805664 7.35026855 12.45068359 7.38168945 13.421875 7.4140625 C14.44667969 7.45273438 15.47148437 7.49140625 16.52734375 7.53125 C17.59082031 7.5621875 18.65429688 7.593125 19.75 7.625 C21.36841797 7.68300781 21.36841797 7.68300781 23.01953125 7.7421875 C25.67951775 7.83634631 28.3394994 7.92197387 31 8 C27.59036354 11.40963646 22.87394422 10.36907187 18.25 10.375 C16.765 10.41173828 16.765 10.41173828 15.25 10.44921875 C9.19475181 10.4735045 5.56381055 10.11491115 1 6 C-0.375 3.25 -0.375 3.25 -1 1 C-0.67 0.67 -0.34 0.34 0 0 Z " fill="#FABF5D" transform="translate(3,117)"/>
<path d="M0 0 C0.33 1.32 0.66 2.64 1 4 C-6.26 4 -13.52 4 -21 4 C-21 3.01 -21 2.02 -21 1 C-10.605 0.505 -10.605 0.505 0 0 Z " fill="#F9EAB5" transform="translate(74,49)"/>
<path d="M0 0 C0.33 0 0.66 0 1 0 C1.19148936 21.72340426 1.19148936 21.72340426 0 31 C-0.33 31 -0.66 31 -1 31 C-1 28.36 -1 25.72 -1 23 C-8.59 23.33 -16.18 23.66 -24 24 C-24 22.02 -24 20.04 -24 18 C-23.34 18 -22.68 18 -22 18 C-22 19.32 -22 20.64 -22 22 C-15.4 22 -8.8 22 -2 22 C-2 20.68 -2 19.36 -2 18 C-1.34 18 -0.68 18 0 18 C0 12.06 0 6.12 0 0 Z " fill="#F2DAA8" transform="translate(76,81)"/>
<path d="M0 0 C2.31 1.65 4.62 3.3 7 5 C5.25 8.875 5.25 8.875 3 10 C0.69 8.35 -1.62 6.7 -4 5 C-2.68 3.35 -1.36 1.7 0 0 Z " fill="#DECFA0" transform="translate(39,36)"/>
<path d="M0 0 C1.65 1.65 3.3 3.3 5 5 C2.69 6.65 0.38 8.3 -2 10 C-4 8.625 -4 8.625 -6 7 C-6 6.34 -6 5.68 -6 5 C-4.04072937 3.2856382 -2.04119788 1.61594832 0 0 Z " fill="#DECFA0" transform="translate(88,36)"/>
<path d="M0 0 C0.6640625 1.75390625 0.6640625 1.75390625 1 4 C-0.0390625 5.96484375 -0.0390625 5.96484375 -1.625 7.9375 C-2.17671875 8.62714844 -2.7284375 9.31679688 -3.296875 10.02734375 C-5.42428631 12.49143254 -7.62970119 14.76913053 -10 17 C-10.99 16.67 -11.98 16.34 -13 16 C-12.39671875 15.43152344 -11.7934375 14.86304687 -11.171875 14.27734375 C-6.53491681 9.79744382 -2.83924382 5.80193303 0 0 Z " fill="#F2B556" transform="translate(122,50)"/>
<path d="M0 0 C2.475 0.495 2.475 0.495 5 1 C5 3.31 5 5.62 5 8 C3.35 8 1.7 8 0 8 C0 5.36 0 2.72 0 0 Z " fill="#E1D2A2" transform="translate(94,17)"/>
<path d="M0 0 C1.32 0 2.64 0 4 0 C4 2.64 4 5.28 4 8 C2.35 8 0.7 8 -1 8 C-1.04241723 5.66705225 -1.04092937 3.33297433 -1 1 C-0.67 0.67 -0.34 0.34 0 0 Z " fill="#E1D2A2" transform="translate(30,17)"/>
<path d="M0 0 C0.66 0 1.32 0 2 0 C2.25394531 0.72445312 2.50789062 1.44890625 2.76953125 2.1953125 C4.58746784 7.30187595 6.42102365 12.22889375 9 17 C6.13301395 15.95857344 5.11649647 15.19313889 3.515625 12.5390625 C3.09796875 11.57742187 2.6803125 10.61578125 2.25 9.625 C1.60804687 8.19027344 1.60804687 8.19027344 0.953125 6.7265625 C-0 4 -0 4 0 0 Z " fill="#F0B457" transform="translate(1,41)"/>
<path d="M0 0 C2.0625 0.4375 2.0625 0.4375 4 1 C4 2.65 4 4.3 4 6 C2.0625 6.5625 2.0625 6.5625 0 7 C-1 6 -1 6 -1.125 3.5 C-1 1 -1 1 0 0 Z " fill="#635F58" transform="translate(46,18)"/>
<path d="M0 0 C3.3 0 6.6 0 10 0 C10 0.99 10 1.98 10 3 C6.7 3 3.4 3 0 3 C0 2.01 0 1.02 0 0 Z " fill="#B66152" transform="translate(59,27)"/>
<path d="M0 0 C0.99 0.33 1.98 0.66 3 1 C0.1875 3.0625 0.1875 3.0625 -3 5 C-3.99 4.67 -4.98 4.34 -6 4 C-4.03617993 2.49440461 -2.21736634 1.10868317 0 0 Z M-9 4 C-8.01 4 -7.02 4 -6 4 C-6 4.66 -6 5.32 -6 6 C-7.65 6.33 -9.3 6.66 -11 7 C-10.34 6.01 -9.68 5.02 -9 4 Z " fill="#F2B558" transform="translate(100,96)"/>
<path d="M0 0 C0 0.66 0 1.32 0 2 C-0.763125 2.45375 -1.52625 2.9075 -2.3125 3.375 C-5.00869044 5.00525469 -6.29482136 6.39735892 -8 9 C-8.33 8.01 -8.66 7.02 -9 6 C-4.85714286 0 -4.85714286 0 0 0 Z " fill="#FABE5C" transform="translate(11,103)"/>
<path d="M0 0 C1.32 0.33 2.64 0.66 4 1 C4 2.65 4 4.3 4 6 C2.68 6.33 1.36 6.66 0 7 C0 4.69 0 2.38 0 0 Z " fill="#575858" transform="translate(79,18)"/>
<path d="M0 0 C0.33 0 0.66 0 1 0 C1.375 2.0625 1.375 2.0625 1 5 C-0.79177109 7.53572282 -2.84238121 9.77174488 -5 12 C-5.66 11.67 -6.32 11.34 -7 11 C-6.57847656 10.37351562 -6.15695313 9.74703125 -5.72265625 9.1015625 C-4.90087891 7.87566406 -4.90087891 7.87566406 -4.0625 6.625 C-3.24458984 5.40683594 -3.24458984 5.40683594 -2.41015625 4.1640625 C-0.98906121 2.07280816 -0.98906121 2.07280816 0 0 Z " fill="#F3B557" transform="translate(115,102)"/>
<path d="M0 0 C4.24822374 0.47202486 6.19989709 2.96655518 9 6 C8.67 6.99 8.34 7.98 8 9 C6.66368764 7.6905332 5.33102075 6.37734515 4 5.0625 C3.2575 4.33160156 2.515 3.60070312 1.75 2.84765625 C0 1 0 1 0 0 Z " fill="#F1B557" transform="translate(114,7)"/>
<path d="M0 0 C3.35620271 1.38877354 5.07298728 2.91677965 7 6 C7 6.66 7 7.32 7 8 C5.68 8 4.36 8 3 8 C2.01 5.36 1.02 2.72 0 0 Z " fill="#D39E4B" transform="translate(90,8)"/>
<path d="M0 0 C0.66 0.33 1.32 0.66 2 1 C1.01 3.31 0.02 5.62 -1 8 C-2.32 8 -3.64 8 -5 8 C-4.1875 5.5625 -4.1875 5.5625 -3 3 C-2.01 2.67 -1.02 2.34 0 2 C0 1.34 0 0.68 0 0 Z " fill="#D29D4B" transform="translate(36,8)"/>
<path d="M0 0 C1.14926266 0.95421808 2.29430541 1.91352045 3.4375 2.875 C4.07558594 3.40867188 4.71367187 3.94234375 5.37109375 4.4921875 C7 6 7 6 8 8 C4.21479387 7.45925627 2.40822445 5.92427254 0 3 C0 2.01 0 1.02 0 0 Z " fill="#F2B557" transform="translate(11,59)"/>
<path d="M0 0 C3.82097239 0.53069061 6.06171403 1.49701566 9 4 C2.25 3.125 2.25 3.125 0 2 C0 1.34 0 0.68 0 0 Z " fill="#F2B557" transform="translate(22,69)"/>
</svg>
