<?xml version="1.0" encoding="UTF-8" standalone="no"?>
<svg
   width="1247px"
   height="1247px"
   viewBox="0 0 1247 1247"
   version="1.1"
   id="svg15"
   sodipodi:docname="sidebar-logo_alternate-white.svg"
   inkscape:version="1.4.2 (ebf0e94, 2025-05-08)"
   xmlns:inkscape="http://www.inkscape.org/namespaces/inkscape"
   xmlns:sodipodi="http://sodipodi.sourceforge.net/DTD/sodipodi-0.dtd"
   xmlns="http://www.w3.org/2000/svg"
   xmlns:svg="http://www.w3.org/2000/svg">
  <defs
     id="defs15">
    <inkscape:path-effect
       effect="spiro"
       id="path-effect67"
       is_visible="true"
       lpeversion="1" />
    <inkscape:path-effect
       effect="skeletal"
       id="path-effect66"
       is_visible="true"
       lpeversion="1"
       pattern="M 0,18.867925 C 0,8.4528302 8.4528302,0 18.867925,0 c 10.415094,0 18.867924,8.4528302 18.867924,18.867925 0,10.415094 -8.45283,18.867924 -18.867924,18.867924 C 8.4528302,37.735849 0,29.283019 0,18.867925 Z"
       copytype="single_stretched"
       prop_scale="1"
       scale_y_rel="false"
       spacing="0"
       normal_offset="0"
       tang_offset="0"
       prop_units="false"
       vertical_pattern="false"
       hide_knot="false"
       fuse_tolerance="0" />
    <inkscape:path-effect
       effect="bspline"
       id="path-effect65"
       is_visible="true"
       lpeversion="1.3"
       weight="33.333333"
       steps="2"
       helper_size="0"
       apply_no_weight="true"
       apply_with_weight="true"
       only_selected="false"
       uniform="false" />
    <inkscape:path-effect
       effect="bspline"
       id="path-effect64"
       is_visible="true"
       lpeversion="1.3"
       weight="33.333333"
       steps="2"
       helper_size="0"
       apply_no_weight="true"
       apply_with_weight="true"
       only_selected="false"
       uniform="false" />
    <inkscape:path-effect
       effect="spiro"
       id="path-effect63"
       is_visible="true"
       lpeversion="1" />
    <inkscape:path-effect
       effect="spiro"
       id="path-effect62"
       is_visible="true"
       lpeversion="1" />
  </defs>
  <sodipodi:namedview
     id="namedview15"
     pagecolor="#ffffff"
     bordercolor="#000000"
     borderopacity="0.25"
     inkscape:showpageshadow="2"
     inkscape:pageopacity="0.0"
     inkscape:pagecheckerboard="0"
     inkscape:deskcolor="#d1d1d1"
     inkscape:zoom="0.44229614"
     inkscape:cx="619.49444"
     inkscape:cy="669.23487"
     inkscape:window-width="1920"
     inkscape:window-height="985"
     inkscape:window-x="1920"
     inkscape:window-y="0"
     inkscape:window-maximized="1"
     inkscape:current-layer="svg15" />
  <g
     id="surface1">
    <path
       style="fill-rule:nonzero;fill:rgb(90.980393%,68.235296%,32.941177%);fill-opacity:1;stroke-width:1;stroke-linecap:butt;stroke-linejoin:miter;stroke:rgb(90.980393%,68.235296%,32.941177%);stroke-opacity:1;stroke-miterlimit:4;"
       d="M 152.500363 7.968456 C 111.080174 8.514284 100.279527 8.937744 94.999962 10.224226 C 61.356625 18.427758 34.37272 38.201571 17.529314 67.000075 C 0.499135 96.120602 -2.827361 131.093894 7.544995 172.000457 C 20.186003 221.856036 57.244393 266.103586 104.499637 287.762843 C 130.420866 299.643877 149.437926 303.588657 185.918285 304.648112 L 208.999273 305.317919 L 209.206978 268.40927 C 209.321296 248.108949 209.255281 218.988422 209.060458 203.695557 L 208.709453 175.890493 L 216.603843 176.695551 C 226.84739 177.738905 287.15261 177.738905 297.396157 176.695551 L 305.290547 175.890493 L 304.939542 203.695557 C 304.744719 218.988422 304.678704 248.108949 304.793022 268.40927 L 305.000727 305.317919 L 328.081715 304.648112 C 364.562074 303.588657 383.579134 299.643877 409.500363 287.762843 C 456.755607 266.103586 493.813997 221.856036 506.455005 172.000457 C 511.542966 151.935213 513.310871 133.604062 511.845667 116.116611 C 507.884786 68.874248 476.209008 28.874179 430.703958 13.653769 C 414.358078 8.185821 413.67378 8.153619 304.499981 7.707617 C 248.949429 7.480591 180.550164 7.598129 152.500363 7.968456 M 137.400712 68.112664 C 137.589095 68.325199 137.326646 71.875501 136.81785 76.000614 C 132.895612 107.774609 151.299218 145.483485 179.104282 162.645693 C 182.347052 164.647065 185.00052 166.846482 185.00052 167.53239 C 185.00052 169.736637 176.537759 180.361781 170.427376 185.824899 C 163.793705 191.75817 151.560057 198.195406 142.499944 200.520411 C 134.547589 202.560426 119.265995 202.571697 110.500533 200.539733 C 87.886478 195.302031 69.774302 178.294394 61.469333 154.500125 C 58.835186 146.950299 58.324779 129.131165 60.467842 119.499461 C 65.967992 94.776157 86.843123 74.2472 112.405298 68.421806 C 117.778249 67.198119 136.38795 66.966263 137.400712 68.112664 M 399.565958 68.083682 C 425.585405 72.833519 447.874217 94.069316 453.532158 119.499461 C 455.675221 129.131165 455.164814 146.950299 452.530667 154.500125 C 444.225698 178.294394 426.113522 195.302031 403.499467 200.539733 C 394.734005 202.571697 379.452411 202.560426 371.500056 200.520411 C 362.439943 198.195406 350.206295 191.75817 343.572624 185.824899 C 337.462241 180.361781 328.99948 169.736637 328.99948 167.53239 C 328.99948 166.846482 331.652948 164.647065 334.895718 162.645693 C 362.652478 145.512467 380.71152 108.713306 377.270706 76.296875 L 376.399634 68.093343 L 378.950055 67.697255 C 384.302075 66.863215 393.864544 67.041938 399.565958 68.083682 M 232.735578 82.249467 C 233.883589 83.487645 235.316591 86.37136 235.923604 88.657722 C 236.757643 91.799055 237.69634 93.046894 239.768557 93.769835 C 244.080443 95.273682 246.724251 93.69577 248.084797 88.802633 C 251.321127 77.161506 262.678873 77.161506 265.915203 88.802633 C 267.275749 93.69577 269.919557 95.273682 274.231443 93.769835 C 276.30366 93.046894 277.242357 91.799055 278.076396 88.657722 C 280.322505 80.185301 287.28947 77.200149 292.544883 82.455562 C 299.033643 88.942713 292.554543 104.290322 281.154934 109.429807 L 277.036262 111.286268 L 276.768983 133.380256 C 276.530686 152.959246 276.313321 155.509667 274.854557 155.789827 C 273.949673 155.963719 270.125652 154.211915 266.354764 151.896571 C 262.585486 149.581226 258.375038 147.687732 257 147.687732 C 255.624962 147.687732 251.414514 149.581226 247.645236 151.896571 C 243.874348 154.211915 240.050327 155.963719 239.145443 155.789827 C 237.686679 155.509667 237.469314 152.959246 237.231017 133.380256 L 236.963738 111.286268 L 233.04472 109.519973 C 221.537233 104.330575 214.953476 88.955593 221.455117 82.455562 C 224.673736 79.235334 229.856694 79.141947 232.735578 82.249467 M 328.693558 75.412922 C 331.403381 77.742758 331.499987 78.156557 331.499987 87.332598 C 331.499987 96.017555 331.290673 97.062519 329.076765 99.419726 C 325.843656 102.86054 320.82332 102.913674 317.454961 99.545315 C 315.18953 97.281494 314.999536 96.349238 314.999536 87.49844 C 314.999536 78.407735 315.139616 77.77657 317.646564 75.451565 C 321.013313 72.331164 325.093343 72.316673 328.693558 75.412922 M 196.353436 75.451565 C 198.860384 77.77657 199.000464 78.407735 199.000464 87.49844 C 199.000464 96.349238 198.81047 97.281494 196.545039 99.545315 C 193.255576 102.836389 188.154734 102.85732 185.087466 99.593618 C 182.546706 96.888626 181.231242 87.907409 182.435608 81.486273 C 183.897592 73.701371 191.096413 70.579359 196.353436 75.451565 "
       transform="matrix(2.42607,0,0,2.42607,0,0)"
       id="path1" />
    <path
       style="fill-rule:nonzero;fill:rgb(97.254902%,91.37255%,70.588237%);fill-opacity:1;stroke-width:1;stroke-linecap:butt;stroke-linejoin:miter;stroke:rgb(97.254902%,91.37255%,70.588237%);stroke-opacity:1;stroke-miterlimit:4;"
       d="M 209.247231 298.207655 C 209.482308 411.857571 209.37443 421.114118 207.730503 429.1824 C 199.449685 469.813634 169.400123 498.757048 128.5 505.496987 C 121.486342 506.653049 127.901037 506.791518 180.500251 506.622456 C 239.496448 506.432463 240.621918 506.3906 247.820739 504.191184 C 275.389115 495.765456 295.108185 475.500558 302.013965 448.500551 C 304.013727 440.683447 304.071691 437.474489 304.496761 308.211295 L 304.931492 175.922696 L 297.215824 176.711652 C 287.188033 177.735684 226.789426 177.734074 216.747143 176.708431 L 208.994443 175.916255 L 209.247231 298.207655 "
       transform="matrix(2.42607,0,0,2.42607,0,0)"
       id="path2" />
    <path
       style="fill-rule:nonzero;fill:rgb(90.980393%,68.235296%,32.941177%);fill-opacity:1;stroke-width:1;stroke-linecap:butt;stroke-linejoin:miter;stroke:rgb(90.980393%,68.235296%,32.941177%);stroke-opacity:1;stroke-miterlimit:4;"
       d="M 469.021458 314.115584 C 464.877024 315.769171 463.229877 317.791475 449.967365 337.499273 C 442.937607 347.950525 434.329936 359.768764 430.842428 363.761847 C 410.786845 386.723687 383.682181 402.444843 351.999962 409.490703 C 347.124536 410.57431 337.639353 411.348775 324.900129 411.703 L 305.300208 412.248828 L 304.681924 426.374361 C 303.677213 449.341031 298.930596 463.450462 287.29591 478.062249 C 277.664207 490.157428 264.583638 498.903569 248.999342 503.663066 L 241.49943 505.954259 L 292.4998 505.701471 C 341.748365 505.456734 343.859225 505.366567 353.970742 503.117238 C 411.337504 490.353862 456.551123 449.658223 473.534608 395.50042 C 478.091231 380.972359 488.999756 333.077899 488.999756 327.603511 C 488.999756 317.635293 478.300546 310.412321 469.021458 314.115584 "
       transform="matrix(2.42607,0,0,2.42607,0,0)"
       id="path3" />
    <path
       style="fill-rule:nonzero;fill:rgb(90.980393%,68.235296%,32.941177%);fill-opacity:1;stroke-width:1;stroke-linecap:butt;stroke-linejoin:miter;stroke:rgb(90.980393%,68.235296%,32.941177%);stroke-opacity:1;stroke-miterlimit:4;"
       d="M 47.499981 413.107019 C 33.715793 415.08746 19.881691 425.388971 13.407422 438.490471 C 0.318803 464.981681 14.389591 496.552802 42.843531 504.535748 C 47.778531 505.920447 54.309154 506.086288 91.0262 505.751385 L 133.499405 505.366567 L 141.999198 502.569799 C 167.036475 494.332454 185.401438 479.33746 197.810589 457.000345 C 204.16249 445.565313 208.999273 428.225992 208.999273 416.890788 L 208.999273 411.999261 L 131.250075 412.121629 C 88.48866 412.189254 50.800715 412.632036 47.499981 413.107019 M 159.64444 453.369537 C 165.434411 458.35123 162.048341 467.400073 154.392248 467.400073 C 151.647003 467.400073 150.152817 466.715774 148.37042 464.643557 C 145.182394 460.938684 145.362727 457.484989 148.922689 453.923416 C 152.484262 450.361843 155.939567 450.183121 159.64444 453.369537 M 55.354119 453.451653 C 61.84932 459.47348 55.426574 469.786262 47.007286 466.852634 C 41.471713 464.923717 40.114387 457.795741 44.455255 453.454873 C 47.643281 450.265237 51.914915 450.265237 55.354119 453.451653 M 107.544363 453.454873 C 111.885231 457.795741 110.527904 464.923717 104.992332 466.852634 C 99.714377 468.692994 93.97754 464.883464 94.032284 459.576527 C 94.107959 452.211865 102.501485 448.410385 107.544363 453.454873 "
       transform="matrix(2.42607,0,0,2.42607,0,0)"
       id="path4" />
    <path
       style="fill-rule:nonzero;fill:rgb(97.254902%,91.37255%,70.588237%);fill-opacity:1;stroke-width:1;stroke-linecap:butt;stroke-linejoin:miter;stroke:rgb(97.254902%,91.37255%,70.588237%);stroke-opacity:1;stroke-miterlimit:4;"
       d="M 112.405298 68.421806 C 86.843123 74.2472 65.967992 94.776157 60.467842 119.499461 C 58.324779 129.131165 58.835186 146.950299 61.469333 154.500125 C 69.774302 178.294394 87.886478 195.302031 110.500533 200.539733 C 119.265995 202.571697 134.547589 202.560426 142.499944 200.520411 C 151.560057 198.195406 163.793705 191.75817 170.427376 185.824899 C 176.537759 180.361781 185.00052 169.736637 185.00052 167.53239 C 185.00052 166.846482 182.3229 164.632574 179.052758 162.613491 C 175.779396 160.594408 169.532152 155.582122 165.167132 151.474721 L 157.229269 144.008621 L 154.575801 149.436316 C 145.309593 168.37448 117.295215 172.567218 103.540009 157.076308 C 101.86871 155.194085 100.018689 153.168561 99.429387 152.577649 C 98.838475 151.985127 98.223411 151.04965 98.05918 150.500601 C 97.894948 149.949942 97.329798 148.375251 96.804901 147.000213 C 90.628502 130.845936 97.173617 113.881773 112.622663 105.990602 C 116.762267 103.876522 118.874737 103.499756 126.596845 103.499756 C 133.196703 103.499756 136.201177 103.911945 137.539182 105.000382 C 138.553554 105.824761 139.100992 106.027635 138.754818 105.447994 C 137.223599 102.884692 135.927457 83.205875 136.81785 76.000614 C 137.326646 71.875501 137.589095 68.325199 137.400712 68.112664 C 136.38795 66.966263 117.778249 67.198119 112.405298 68.421806 "
       transform="matrix(2.42607,0,0,2.42607,0,0)"
       id="path5" />
    <path
       style="fill-rule:nonzero;fill:rgb(97.254902%,91.37255%,70.588237%);fill-opacity:1;stroke-width:1;stroke-linecap:butt;stroke-linejoin:miter;stroke:rgb(97.254902%,91.37255%,70.588237%);stroke-opacity:1;stroke-miterlimit:4;"
       d="M 378.945225 67.697255 L 376.391584 68.094953 L 377.225623 75.296994 C 378.050001 82.412089 377.550866 93.471964 376.032528 101.767273 C 375.343399 105.53011 375.431955 105.885945 376.778011 104.768526 C 377.765011 103.948978 381.524628 103.499756 387.403155 103.499756 C 395.125263 103.499756 397.237733 103.876522 401.377337 105.990602 C 417.040529 113.98965 423.376328 130.818565 417.005106 147.499348 C 416.375551 149.149716 415.810401 150.724407 415.750827 150.999737 C 415.691253 151.275066 415.161525 151.985127 414.570613 152.577649 C 413.981311 153.168561 412.13129 155.194085 410.459991 157.076308 C 396.704785 172.567218 368.690407 168.37448 359.424199 149.436316 L 356.770731 144.008621 L 348.832868 151.474721 C 344.467848 155.582122 338.220604 160.594408 334.947242 162.613491 C 331.6771 164.632574 328.99948 166.846482 328.99948 167.53239 C 328.99948 169.736637 337.462241 180.361781 343.572624 185.824899 C 350.206295 191.75817 362.439943 198.195406 371.500056 200.520411 C 379.452411 202.560426 394.734005 202.571697 403.499467 200.539733 C 426.113522 195.302031 444.225698 178.294394 452.530667 154.500125 C 455.164814 146.950299 455.675221 129.131165 453.532158 119.499461 C 446.167496 86.398732 411.862401 62.572261 378.945225 67.697255 "
       transform="matrix(2.42607,0,0,2.42607,0,0)"
       id="path6" />
    <path
       style="fill-rule:nonzero;fill:rgb(29.019609%,31.37255%,34.509805%);fill-opacity:1;stroke-width:1;stroke-linecap:butt;stroke-linejoin:miter;stroke:rgb(29.019609%,31.37255%,34.509805%);stroke-opacity:1;stroke-miterlimit:4;"
       d="M 379.323602 103.649496 C 376.444717 104.272611 375.721776 105.385199 373.570663 112.500294 C 371.281081 120.069442 365.922621 130.818565 360.744493 138.2267 L 356.743359 143.953877 L 359.411318 149.407334 C 368.793454 168.583795 395.809562 172.497983 410.662866 156.834791 C 422.606694 144.240477 422.345855 124.096337 410.086445 112.199203 C 403.860133 106.156444 397.696616 103.573821 389.000388 103.361286 C 384.875276 103.259849 380.519917 103.390268 379.323602 103.649496 "
       transform="matrix(2.42607,0,0,2.42607,0,0)"
       id="path7" />
    <path
       style="fill-rule:nonzero;fill:rgb(29.019609%,31.37255%,34.509805%);fill-opacity:1;stroke-width:1;stroke-linecap:butt;stroke-linejoin:miter;stroke:rgb(29.019609%,31.37255%,34.509805%);stroke-opacity:1;stroke-miterlimit:4;"
       d="M 116.499818 104.163123 C 111.836927 105.908487 103.675258 111.59541 101.382455 114.69649 C 91.573639 127.963832 92.375476 145.277391 103.337134 156.834791 C 118.190438 172.497983 145.206546 168.583795 154.588682 149.407334 L 157.256641 143.953877 L 153.255507 138.2267 C 148.064499 130.799243 142.710869 120.05173 140.440607 112.500294 C 139.448777 109.19956 138.060859 105.858573 137.355629 105.072837 C 135.713312 103.243747 120.703827 102.588431 116.499818 104.163123 "
       transform="matrix(2.42607,0,0,2.42607,0,0)"
       id="path8" />
    <path
       style="fill-rule:nonzero;fill:rgb(83.137256%,42.745098%,34.901962%);fill-opacity:1;stroke-width:1;stroke-linecap:butt;stroke-linejoin:miter;stroke:rgb(83.137256%,42.745098%,34.901962%);stroke-opacity:1;stroke-miterlimit:4;"
       d="M 252.163217 109.225322 C 249.862363 110.645443 246.99153 111.318471 242.898619 111.392536 L 236.968568 111.500413 L 237.234237 133.486524 C 237.469314 152.968907 237.686679 155.509667 239.145443 155.789827 C 240.050327 155.963719 243.874348 154.211915 247.645236 151.896571 C 251.414514 149.581226 255.624962 147.687732 257 147.687732 C 258.375038 147.687732 262.585486 149.581226 266.354764 151.896571 C 270.125652 154.211915 273.949673 155.963719 274.854557 155.789827 C 276.313321 155.509667 276.530686 152.968907 276.765763 133.486524 L 277.031432 111.500413 L 271.0885 111.392536 C 266.961777 111.31525 264.036199 110.629342 261.516371 109.141596 C 257.157791 106.570244 256.455781 106.576684 252.163217 109.225322 "
       transform="matrix(2.42607,0,0,2.42607,0,0)"
       id="path9" />
    <path
       style="fill-rule:nonzero;fill:rgb(29.019609%,31.37255%,34.509805%);fill-opacity:1;stroke-width:1;stroke-linecap:butt;stroke-linejoin:miter;stroke:rgb(29.019609%,31.37255%,34.509805%);stroke-opacity:1;stroke-miterlimit:4;"
       d="M 224.020029 81.283399 C 218.756566 83.946528 217.983711 91.045522 222.076621 99.123465 C 227.483385 109.795302 243.170728 114.226337 253.649352 108.043498 L 257.191604 105.95518 L 260.577674 108.048328 C 267.998691 112.633934 279.807269 111.398976 287.083375 105.275712 C 292.826653 100.443759 296.272297 89.929713 293.731537 84.999543 C 292.150405 81.938715 287.674287 79.650743 284.949974 80.515374 C 282.032447 81.4428 279.000601 85.030135 279.000601 87.554794 C 279.000601 90.971456 275.268357 94.999962 272.101262 94.999962 C 269.090348 94.999962 265.000658 91.388476 265.000658 88.733398 C 265.000658 85.587234 262.719126 82.125489 259.869224 80.945275 C 254.702367 78.805433 248.999342 82.962748 248.999342 88.873478 C 248.999342 91.44644 244.801774 94.999962 241.758658 94.999962 C 238.770286 94.999962 235.01872 90.918323 234.967196 87.614368 C 234.930164 85.054287 233.250814 82.727671 230.315576 81.16264 C 227.600923 79.716758 227.098568 79.726418 224.020029 81.283399 "
       transform="matrix(2.42607,0,0,2.42607,0,0)"
       id="path10" />
    <path
       style="fill-rule:nonzero;fill:rgb(29.019609%,31.37255%,34.509805%);fill-opacity:1;stroke-width:1;stroke-linecap:butt;stroke-linejoin:miter;stroke:rgb(29.019609%,31.37255%,34.509805%);stroke-opacity:1;stroke-miterlimit:4;"
       d="M 317.405047 76.103661 C 314.980215 78.782891 314.183208 93.088757 316.242545 96.999724 C 318.131209 100.588669 322.119462 102.28573 325.576377 100.970266 C 330.155542 99.229733 330.933227 97.273444 330.96865 87.424375 C 330.997632 79.209572 330.780266 78.143676 328.685508 76.174506 C 325.61341 73.289182 319.98606 73.253759 317.405047 76.103661 "
       transform="matrix(2.42607,0,0,2.42607,0,0)"
       id="path11" />
    <path
       style="fill-rule:nonzero;fill:rgb(29.019609%,31.37255%,34.509805%);fill-opacity:1;stroke-width:1;stroke-linecap:butt;stroke-linejoin:miter;stroke:rgb(29.019609%,31.37255%,34.509805%);stroke-opacity:1;stroke-miterlimit:4;"
       d="M 185.072975 76.634999 C 183.332442 78.847296 183.005588 80.652234 183.03135 87.884867 C 183.066773 97.202599 183.897592 99.250664 188.330236 100.936454 C 191.740458 102.232596 195.358385 100.907472 197.551361 97.561654 C 199.958482 93.887373 199.299945 79.092033 196.594953 76.103661 C 193.73539 72.946227 187.757036 73.221557 185.072975 76.634999 "
       transform="matrix(2.42607,0,0,2.42607,0,0)"
       id="path12" />
    <path
       style="fill-rule:nonzero;fill:rgb(97.254902%,91.37255%,70.588237%);fill-opacity:1;stroke-width:1;stroke-linecap:butt;stroke-linejoin:miter;stroke:rgb(97.254902%,91.37255%,70.588237%);stroke-opacity:1;stroke-miterlimit:4;"
       d="M 98.500351 452.208644 C 91.839308 456.027836 92.827918 464.703131 100.221563 467.308296 C 102.615803 468.151996 107.842234 466.163505 109.020838 463.960869 C 112.968838 456.584935 105.470536 448.210731 98.500351 452.208644 "
       transform="matrix(2.42607,0,0,2.42607,0,0)"
       id="path13" />
    <path
       style="fill-rule:nonzero;fill:rgb(29.019609%,31.37255%,34.509805%);fill-opacity:1;stroke-width:1;stroke-linecap:butt;stroke-linejoin:miter;stroke:rgb(29.019609%,31.37255%,34.509805%);stroke-opacity:1;stroke-miterlimit:4;"
       d="M 44.073658 454.635087 C 41.323583 458.130645 41.455612 461.545697 44.455255 464.54534 C 48.432237 468.523932 54.054756 467.728536 56.589076 462.828958 C 59.355253 457.480159 55.978843 451.99933 49.918373 451.99933 C 47.033048 451.99933 45.6564 452.619224 44.073658 454.635087 "
       transform="matrix(2.42607,0,0,2.42607,0,0)"
       id="path14" />
    <path
       style="fill-rule:nonzero;fill:rgb(29.019609%,31.37255%,34.509805%);fill-opacity:1;stroke-width:1;stroke-linecap:butt;stroke-linejoin:miter;stroke:rgb(29.019609%,31.37255%,34.509805%);stroke-opacity:1;stroke-miterlimit:4;"
       d="M 148.999975 454.000702 C 146.214477 456.784589 146.367438 462.057714 149.313947 464.8255 C 154.229626 469.441698 162.000038 465.986392 162.000038 459.18527 C 162.000038 454.915247 158.955311 451.99933 154.500125 451.99933 C 152.332911 451.99933 150.238153 452.762524 148.999975 454.000702 "
       transform="matrix(2.42607,0,0,2.42607,0,0)"
       id="path15" />
  </g>
  <path
     style="fill:#e6ae51;fill-opacity:1;stroke-width:1.59872"
     d="m 500.85175,740.9259 c -0.48357,-0.48358 -9.77612,-0.85815 -20.6501,-0.83236 -36.30748,0.0861 -107.51298,-4.52554 -114.8946,-7.44114 -1.31894,-0.52095 -3.02186,-0.80492 -3.78426,-0.63101 -3.37969,0.77092 -36.96364,-7.0941 -55.23646,-12.93582 C 236.94712,696.91823 177.28767,659.85467 126.2002,607.20665 61.554905,540.58667 22.869935,462.48934 7.960738,368.50449 4.6353321,347.54173 3.2692049,295.91698 5.5084626,275.83515 15.201583,188.9065 62.214448,112.50282 135.172,65.110495 c 25.83992,-16.785287 58.60055,-31.074273 89.44787,-39.013883 24.6307,-6.339548 75.05808,-7.423167 353.31667,-7.59231 365.36814,-0.222094 417.84249,0.770014 447.71026,8.464646 67.1883,17.309295 129.721,61.35901 168.0256,118.361662 23.8076,35.42917 38.6382,72.76721 46.4163,116.85913 3.1941,18.10684 2.6935,82.35375 -0.816,104.71603 -7.6421,48.69559 -20.1692,89.12023 -40.1292,129.49615 -22.9812,46.48738 -49.7638,83.23406 -87.4576,119.99499 -34.5056,33.65153 -68.1904,57.42923 -110.8885,78.27464 -45.85111,22.38478 -82.905,33.57691 -131.89419,39.83869 -21.11932,2.69947 -75.6142,5.69652 -101.69303,5.59281 -9.7682,-0.0389 -19.66027,0.40622 -21.98237,0.98905 l -4.22204,1.05966 V 583.69832 425.24487 l -18.78494,1.20609 c -24.55544,1.57659 -173.09922,1.55966 -197.96898,-0.0226 l -19.31226,-1.22864 0.74505,158.30268 c 0.65197,138.52653 0.45156,158.30269 -1.6043,158.30269 -1.29215,0 -2.74501,-0.39565 -3.22859,-0.87923 z M 346.92179,487.90949 c 21.20823,-5.63611 48.07983,-19.40131 65.05173,-33.32331 15.72518,-12.89932 38.06558,-41.08116 38.06558,-48.01873 0,-2.66226 -3.88602,-6.30993 -15.5875,-14.63145 -25.59227,-18.19998 -49.39936,-40.75338 -60.29686,-57.12162 -19.88989,-29.87498 -33.61894,-62.01012 -37.85748,-88.61182 -1.37637,-8.6382 -2.11763,-26.21525 -2.03461,-48.24511 0.15303,-40.61163 2.9996,-36.44837 -24.91073,-36.43344 -31.29359,0.0168 -49.44332,3.93807 -73.75541,15.93517 -34.92438,17.23384 -61.46402,43.57453 -78.122,77.53633 -10.93894,22.30199 -14.41623,36.6925 -15.45245,63.94872 -1.50725,39.6463 4.85914,64.90363 24.16883,95.88476 8.37718,13.44066 28.24994,35.27034 41.20569,45.26333 19.18163,14.79514 50.21672,27.68719 73.8953,30.69628 17.09337,2.17224 52.46025,0.62073 65.62991,-2.87911 z m 634.27882,-0.18929 c 30.90799,-7.91941 50.68829,-19.26487 74.05719,-42.47725 27.4336,-27.2498 43.2283,-56.06287 48.0856,-87.71873 3.2856,-21.41248 2.1297,-55.85922 -2.4632,-73.40611 -19.7733,-75.54377 -96.8795,-129.7544 -174.25933,-122.51556 -8.2632,0.77302 -15.18715,1.59911 -15.38656,1.83576 -0.19942,0.23665 0.21391,4.38711 0.9185,9.22323 1.8928,12.99164 1.76647,46.89076 -0.23249,62.39193 -0.96084,7.45096 -1.98453,15.70544 -2.27486,18.34332 -0.78751,7.15515 -11.41007,36.53888 -17.87256,49.43845 -3.11717,6.22207 -10.7631,19.15058 -16.99097,28.73007 -9.18262,14.12434 -14.66243,20.42971 -28.98472,33.35141 -9.71372,8.76382 -24.67569,20.92249 -33.24881,27.01928 -11.71777,8.33311 -15.5875,11.96728 -15.5875,14.63868 0,5.90881 14.39073,25.22946 30.91692,41.50828 20.55746,20.24976 59.1474,39.22445 86.95965,42.75809 17.13655,2.17727 52.10328,0.53289 66.36314,-3.12085 z M 587.79598,377.5097 c 3.8099,-1.64185 10.88392,-5.3332 15.72005,-8.20301 4.83612,-2.86979 11.31093,-6.10128 14.38846,-7.18109 6.73138,-2.36182 11.64611,-0.9192 27.1782,7.97761 5.71542,3.27379 13.09302,6.92053 16.39466,8.10385 10.5317,3.77459 10.77181,2.61991 11.90316,-57.24306 l 0.98061,-51.88636 10.15536,-4.42414 c 17.33773,-7.55315 29.7451,-25.28044 31.92379,-45.61178 1.44572,-13.49126 -9.06372,-25.59685 -22.22183,-25.59685 -5.24061,0 -7.42811,1.08157 -12.55332,6.20678 -3.47624,3.47626 -6.20679,7.76571 -6.20679,9.75038 0,8.59119 -9.16564,19.21464 -16.5779,19.21464 -5.09795,0 -13.33333,-9.24369 -14.4485,-16.21751 -0.75886,-4.7457 -2.83003,-8.4228 -7.21303,-12.80579 -5.18648,-5.18647 -7.20245,-6.1485 -12.88447,-6.1485 -3.70478,0 -8.89384,1.25899 -11.53126,2.79776 -5.2863,3.08423 -10.88586,12.56036 -10.88586,18.42214 0,4.17623 -6.83849,11.40367 -12.37096,13.0746 -7.29006,2.20175 -18.00468,-8.5259 -18.00468,-18.02658 0,-4.45932 -6.81136,-12.14516 -13.63139,-15.38148 -7.31179,-3.46966 -14.63631,-1.31128 -21.29812,6.27611 -15.36141,17.49566 -0.0997,53.38413 27.58066,64.85701 l 8.44392,3.4998 0.98168,51.94307 c 0.81819,43.29293 1.39873,52.57958 3.48611,55.76531 2.99755,4.57484 2.1686,4.50995 10.69145,0.83709 z M 473.54257,244.66856 c 8.61959,-5.25566 10.76657,-11.34688 10.75722,-30.5193 -0.0129,-26.38705 -5.58595,-36.69157 -19.84418,-36.69157 -9.39469,0 -15.86642,4.0533 -19.4666,12.19211 -2.9041,6.5652 -3.23362,9.822 -2.63399,26.03317 0.38789,10.48691 1.5546,20.12761 2.68804,22.21187 4.99774,9.19022 19.05626,12.53162 28.49951,6.77372 z m 321.3179,0.0148 c 8.45762,-5.15696 9.29466,-8.16327 9.29466,-33.38235 v -22.91109 l -5.12514,-4.58108 c -9.73698,-8.70334 -26.76783,-7.78974 -31.67471,1.69913 -5.62082,10.86946 -6.37388,41.45549 -1.26977,51.57261 4.98604,9.88312 18.97389,13.57892 28.77496,7.60278 z"
     id="path16" />
  <rect
     style="fill:#efdfac;fill-opacity:1;stroke-width:0.995178"
     id="rect53"
     width="232.75061"
     height="63.948738"
     x="506.89059"
     y="741.80511" />
  <rect
     style="fill:#efdfac;fill-opacity:1;stroke-width:0.997592"
     id="rect54"
     width="233.88107"
     height="63.948738"
     x="506.32535"
     y="561.42944" />
  <rect
     style="fill:#efdfac;fill-opacity:1;stroke-width:0.992758"
     id="rect55"
     width="231.62015"
     height="63.948738"
     x="507.45584"
     y="935.1145" />
  <path
     style="fill:#efdfac;fill-opacity:1"
     d="m 469.6234,1129.0946 185.26564,68.1796 -18.15112,9.778 -18.99067,8.6474 -20.04078,6.5888 -176.04461,-42.0349 22.38205,-19.1846 14.38846,-15.9871 z"
     id="path55"
     sodipodi:nodetypes="ccccccccc" />
  <path
     style="fill:#e6ae51;fill-opacity:1"
     d="m 617.90449,1219.0224 c -2.36123,0.2948 -4.83305,-0.2951 -7.19423,0 -1.13859,0.1424 -2.82873,1.3067 -3.9968,1.5988 -0.2585,0.065 -0.57765,-0.1478 -0.79936,0 -1.12539,0.025 -0.10177,0.9011 -0.39968,1.199 -0.0942,0.094 -0.30547,-0.094 -0.39968,0 -0.0942,0.094 0.0596,0.2805 0,0.3997 -0.83168,1.6633 0.0276,-0.4273 -0.79935,0.3997 -0.19984,0.1998 -0.19984,0.5995 -0.39968,0.7993 -0.70091,0.7009 -1.70114,0.4509 -2.39808,0.7994 -0.67659,0.3383 -1.29961,1.3658 -1.9984,1.5987 -0.25278,0.084 -0.54658,-0.084 -0.79936,0 -0.39801,0.1327 -0.80102,0.6667 -1.19904,0.7993 -0.83981,0.28 -2.30479,0 -3.19743,0"
     id="path60" />
  <path
     style="fill:#e6ae51;fill-opacity:1"
     d="m 637.0891,1212.2279 5.9952,-4.7962"
     id="path61" />
  <path
     style="fill:#e6ae51;fill-opacity:1"
     d="m 653.27612,1197.9393 -23.38125,19.3845"
     id="path62"
     inkscape:path-effect="#path-effect62"
     inkscape:original-d="m 653.27612,1197.9393 c -7.82705,4.6297 -23.38125,19.3845 -23.38125,19.3845" />
  <path
     style="fill:#e6ae51;fill-opacity:1"
     d="m 622.80056,1237.5076 v 0"
     id="path63"
     inkscape:path-effect="#path-effect63"
     inkscape:original-d="m 622.80056,1237.5076 c 0,0 0,0 0,0" />
  <path
     style="fill:#e6ae51;fill-opacity:1"
     d="m 655.95191,1209.0316 c 4.33343,2.5435 8.66691,5.0871 13.00034,7.6306"
     id="path65"
     inkscape:path-effect="#path-effect65"
     inkscape:original-d="m 655.95191,1209.0316 c 4.33345,2.5435 8.6669,5.0871 13.00034,7.6306" />
</svg>
